<?xml version="1.0" encoding="UTF-8"?>
<svg xmlns="http://www.w3.org/2000/svg" xmlns:xlink="http://www.w3.org/1999/xlink" viewBox="0 0 50 50" width="50px" height="50px">
<g id="surface84040391">
<path style=" stroke:none;fill-rule:nonzero;fill:rgb(0%,0%,0%);fill-opacity:1;" d="M 44.070312 6.867188 C 43.644531 6.882812 43.222656 6.996094 42.835938 7.148438 C 42.457031 7.296875 40.03125 8.300781 36.496094 9.769531 C 32.960938 11.234375 28.363281 13.144531 23.808594 15.039062 C 14.695312 18.828125 5.738281 22.558594 5.738281 22.558594 L 5.78125 22.542969 C 5.78125 22.542969 5.28125 22.707031 4.78125 23.042969 C 4.53125 23.214844 4.269531 23.429688 4.058594 23.730469 C 3.851562 24.027344 3.707031 24.441406 3.761719 24.878906 C 3.863281 25.675781 4.40625 26.195312 4.851562 26.507812 C 5.300781 26.820312 5.730469 26.96875 5.730469 26.96875 L 5.734375 26.96875 L 14.492188 29.867188 C 14.636719 30.367188 16.976562 38.519531 17.53125 40.242188 C 17.816406 41.140625 18.085938 41.640625 18.335938 41.957031 C 18.460938 42.113281 18.582031 42.226562 18.707031 42.300781 C 18.761719 42.335938 18.8125 42.355469 18.863281 42.375 C 18.875 42.378906 18.882812 42.386719 18.890625 42.390625 C 18.90625 42.394531 18.917969 42.394531 18.9375 42.398438 C 19.765625 42.707031 20.460938 42.171875 20.460938 42.171875 L 20.480469 42.15625 L 26.484375 36.875 L 35.367188 43.996094 L 35.445312 44.03125 C 36.871094 44.644531 38.046875 44.308594 38.730469 43.765625 C 39.417969 43.226562 39.695312 42.519531 39.695312 42.519531 L 39.714844 42.464844 L 46.121094 10.0625 C 46.277344 9.367188 46.292969 8.785156 46.160156 8.285156 C 46.023438 7.785156 45.707031 7.378906 45.3125 7.152344 C 44.917969 6.925781 44.492188 6.847656 44.070312 6.867188 Z M 44.105469 8.136719 C 44.351562 8.128906 44.5625 8.160156 44.6875 8.234375 C 44.808594 8.304688 44.890625 8.386719 44.953125 8.613281 C 45.015625 8.839844 45.027344 9.222656 44.902344 9.785156 L 44.898438 9.792969 L 38.519531 42.070312 C 38.511719 42.09375 38.34375 42.476562 37.957031 42.785156 C 37.5625 43.09375 37.03125 43.324219 35.988281 42.890625 L 21.710938 31.445312 C 21.589844 31.316406 21.425781 31.246094 21.25 31.25 C 20.90625 31.246094 20.625 31.515625 20.617188 31.859375 L 18.992188 40.578125 C 18.90625 40.386719 18.816406 40.160156 18.722656 39.859375 C 18.21875 38.289062 15.953125 30.421875 15.730469 29.648438 L 38.132812 15.140625 C 38.199219 15.425781 38.457031 15.628906 38.75 15.625 C 38.941406 15.628906 39.121094 15.542969 39.242188 15.394531 C 39.363281 15.246094 39.410156 15.050781 39.367188 14.863281 C 39.382812 14.671875 39.367188 14.484375 39.285156 14.296875 C 39.148438 13.996094 38.832031 13.8125 38.605469 13.769531 C 38.148438 13.683594 37.855469 13.847656 37.855469 13.847656 L 37.792969 13.871094 L 14.910156 28.6875 L 6.140625 25.789062 C 6.136719 25.785156 5.859375 25.6875 5.566406 25.480469 C 5.273438 25.277344 5.039062 25.007812 5.003906 24.722656 C 4.988281 24.621094 5.007812 24.554688 5.089844 24.441406 C 5.167969 24.328125 5.3125 24.191406 5.480469 24.078125 C 5.8125 23.855469 6.179688 23.726562 6.179688 23.726562 L 6.199219 23.71875 L 6.222656 23.710938 C 6.222656 23.710938 15.175781 19.984375 24.289062 16.195312 C 28.84375 14.300781 33.441406 12.390625 36.976562 10.921875 C 40.511719 9.457031 43.035156 8.410156 43.289062 8.3125 C 43.566406 8.203125 43.855469 8.148438 44.105469 8.136719 Z M 37 16.0625 L 36.5 16.3125 L 36.398438 16.863281 L 36.785156 17.273438 L 37 17.3125 L 37.5 17.0625 L 37.597656 16.511719 L 37.214844 16.101562 Z M 35.25 17.75 L 34.75 18 L 34.652344 18.550781 L 35.03125 18.960938 L 35.25 19 L 35.75 18.75 L 35.851562 18.199219 L 35.464844 17.789062 Z M 33.5 19.4375 L 33 19.6875 L 32.902344 20.238281 L 33.28125 20.648438 L 33.5 20.6875 L 34 20.4375 L 34.097656 19.886719 L 33.71875 19.476562 Z M 31.75 21.125 L 31.25 21.375 L 31.152344 21.925781 L 31.535156 22.335938 L 31.75 22.375 L 32.25 22.125 L 32.351562 21.574219 L 31.964844 21.164062 Z M 30 22.8125 L 29.5 23.0625 L 29.402344 23.613281 L 29.78125 24.023438 L 30 24.0625 L 30.5 23.8125 L 30.597656 23.261719 L 30.21875 22.851562 Z M 28.25 24.5 L 27.75 24.75 L 27.648438 25.300781 L 28.035156 25.710938 L 28.25 25.75 L 28.75 25.5 L 28.847656 24.949219 L 28.464844 24.539062 Z M 26.5 26.1875 L 26 26.4375 L 25.902344 26.988281 L 26.28125 27.398438 L 26.5 27.4375 L 27 27.1875 L 27.101562 26.636719 L 26.714844 26.226562 Z M 24.75 27.875 L 24.25 28.125 L 24.152344 28.675781 L 24.535156 29.085938 L 24.75 29.125 L 25.25 28.875 L 25.347656 28.324219 L 24.96875 27.914062 Z M 23 29.5625 L 22.5 29.8125 L 22.402344 30.363281 L 22.785156 30.773438 L 23 30.8125 L 23.5 30.5625 L 23.601562 30.011719 L 23.214844 29.601562 Z M 21.671875 33.015625 L 25.496094 36.082031 L 20.238281 40.707031 Z M 21.671875 33.015625 "/>
</g>
</svg>
